Coordinates
version=1
nRows=19
nColumns=24
inDegrees=yes

Units are S.I. units (second, meters, Newtons, ...)
Angles are in degrees.

endheader
time	pelvis_tilt	pelvis_list	pelvis_rotation	pelvis_tx	pelvis_ty	pelvis_tz	hip_flexion_r	hip_adduction_r	hip_rotation_r	knee_angle_r	ankle_angle_r	subtalar_angle_r	mtp_angle_r	hip_flexion_l	hip_adduction_l	hip_rotation_l	knee_angle_l	ankle_angle_l	subtalar_angle_l	mtp_angle_l	lumbar_extension	lumbar_bending	lumbar_rotation
      0.63000000	      0.54347445	      5.26956582	      6.10210952	     -0.81621431	      0.96819539	      0.31272568	     28.25440342	     -5.28484027	     -7.46251948	     -8.27830385	     12.61341922	     -1.79880417	      4.49862043	    -22.53247930	      7.34070704	      9.58063932	     -5.73313397	      6.84516971	     -6.30149125	      6.63274667	     -1.14236253	     -3.23982759	     -4.43545365
      0.63416667	      0.47189310	      5.19574956	      6.17114094	     -0.81003403	      0.96743985	      0.31291660	     28.35903129	     -5.18985602	     -7.35312596	     -8.70054441	     12.59766949	     -2.07128938	      4.52965244	    -22.66453033	      7.18840618	      9.43981810	     -6.00145781	      6.68066214	     -6.04821908	      6.68322343	     -0.99941630	     -3.15034108	     -4.46968017
      0.63833333	      0.42004819	      5.11450362	      6.22287326	     -0.80377264	      0.96671484	      0.31309151	     28.44676894	     -5.08546848	     -7.26408597	     -9.17155088	     12.53957149	     -2.25239178	      4.54224474	    -22.84238123	      7.03382813	      9.34010024	     -6.22015739	      6.43430277	     -5.90188727	      6.72049173	     -0.86277239	     -3.03669230	     -4.49615822
      0.64250000	      0.31097719	      5.01305987	      6.26803373	     -0.79749277	      0.96593837	      0.31334877	     28.58199739	     -4.94109905	     -7.03947468	     -9.64770092	     12.41964403	     -2.73780335	      4.58546213	    -22.90176216	      6.86420985	      9.13524786	     -6.54351274	      6.30311175	     -5.57388373	      6.89058446	     -0.67816526	     -2.92955948	     -4.51780974
      0.64666667	      0.23943971	      4.91246944	      6.30834582	     -0.79114240	      0.96522956	      0.31357278	     28.68213119	     -4.80581943	     -6.89571041	    -10.16990410	     12.27207948	     -2.98363189	      4.61057106	    -23.03354590	      6.69344666	      9.00800290	     -6.79918031	      5.97937266	     -5.40866909	      7.00156513	     -0.52525581	     -2.81004910	     -4.53581804
      0.65083333	      0.11373710	      4.80057012	      6.34236196	     -0.78479006	      0.96446476	      0.31385028	     28.83094484	     -4.64185788	     -6.62829584	    -10.69878171	     12.05264614	     -3.58056806	      4.67809207	    -23.05135506	      6.52089782	      8.80189438	     -7.16783109	      5.80784897	     -5.12786359	      7.32296048	     -0.29155879	     -2.67992153	     -4.52185964
      0.65500000	     -0.00060727	      4.67882801	      6.35537989	     -0.77836005	      0.96374075	      0.31414550	     28.96822865	     -4.46089698	     -6.38358516	    -11.25136077	     11.79962371	     -4.05321676	      4.76540935	    -23.09936986	      6.34401222	      8.61479643	     -7.48512244	      5.50473783	     -4.93782073	      7.74801138	     -0.07019179	     -2.53502933	     -4.51804603
      0.65916667	     -0.12411670	      4.55483676	      6.36850574	     -0.77191127	      0.96301716	      0.31444499	     29.12182677	     -4.28031075	     -6.15282840	    -11.83977286	     11.51982358	     -4.52263162	      4.86799342	    -23.12001076	      6.16615811	      8.43216632	     -7.84029664	      5.17816435	     -4.74444384	      8.25001371	      0.16501638	     -2.39227359	     -4.49654494
      0.66333333	     -0.25041358	      4.41677721	      6.36928325	     -0.76541603	      0.96232729	      0.31477053	     29.27323694	     -4.07661371	     -5.91010388	    -12.43515647	     11.19763570	     -5.01100174	      4.97779870	    -23.12580267	      5.97920694	      8.23969218	     -8.20583408	      4.81343182	     -4.57710451	      8.81522935	      0.40791445	     -2.23552156	     -4.47363271
      0.66750000	     -0.38381743	      4.28009508	      6.40043355	     -0.75891633	      0.96168036	      0.31511836	     29.42184912	     -3.88232080	     -5.68125931	    -13.03857225	     10.87747553	     -5.63547257	      5.16553339	    -23.10190636	      5.77569622	      8.05984070	     -8.60270805	      4.39154871	     -4.32992106	      9.80418926	      0.64719523	     -2.10493201	     -4.41332987
      0.67166667	     -0.55146206	      4.13293980	      6.38640467	     -0.75235316	      0.96100111	      0.31549625	     29.62101588	     -3.66321663	     -5.43759572	    -13.67059422	     10.49555573	     -6.14259950	      5.41575174	    -23.03439134	      5.58799411	      7.84453264	     -9.00566973	      3.93140262	     -4.16187606	     11.19137933	      0.94680153	     -1.94411853	     -4.35403094
      0.67583333	     -0.51614070	      4.01720073	      6.42894766	     -0.74568180	      0.96051382	      0.31589854	     29.62704881	     -3.51375275	     -5.47802070	    -14.41099840	     10.24088406	     -6.21709786	      5.42214920	    -23.20633450	      5.37419640	      7.74300668	     -9.38235934	      3.45492508	     -4.11372975	     11.24576359	      1.01248902	     -1.81732355	     -4.40988178
      0.68000000	     -0.63463316	      3.85735759	      6.36588820	     -0.73917569	      0.95994234	      0.31636457	     29.77765092	     -3.25192823	     -5.18821155	    -15.04222603	      9.77924908	     -6.69946132	      5.50399303	    -23.13741417	      5.18618457	      7.46042345	     -9.86708057	      2.98548994	     -3.90044249	     11.76458415	      1.25428325	     -1.61763904	     -4.42548405
      0.68416667	     -0.69770236	      3.70379407	      6.32262136	     -0.73263107	      0.95949025	      0.31682138	     29.87976101	     -3.01667250	     -5.02393581	    -15.72660600	      9.40493178	     -7.10853878	      6.25507691	    -23.12783735	      4.98375657	      7.20824135	    -10.32800165	      2.33204016	     -3.77288445	     16.89620855	      1.41072815	     -1.44849163	     -4.37992817
      0.68833333	     -0.78701835	      3.54474223	      6.26565083	     -0.72602997	      0.95903513	      0.31725248	     30.02462965	     -2.78647094	     -4.91632147	    -16.45491189	      9.12458047	     -7.28172903	      6.25371553	    -23.09315189	      4.79596300	      7.01862383	    -10.78952527	      1.69657853	     -3.72336802	     16.91829872	      1.62668987	     -1.24768347	     -4.35215290
      0.69250000	     -0.96708147	      3.38423237	      6.19646635	     -0.71949498	      0.95850573	      0.31778735	     30.25758423	     -2.53120721	     -4.67412800	    -17.15432468	      8.74363831	     -7.81286350	      6.25413486	    -22.88025366	      4.61902807	      6.75341151	    -11.40715260	      1.15890467	     -3.58512252	     17.06593115	      1.93098035	     -1.08309410	     -4.23872185
      0.69666667	     -1.08841375	      3.20801347	      6.13561892	     -0.71290427	      0.95811861	      0.31831745	     30.41545245	     -2.26961426	     -4.51601983	    -17.85047866	      8.42236800	     -8.24211119	      6.25457099	    -22.72494230	      4.41092891	      6.49222900	    -12.01217972	      0.52365603	     -3.42631296	     17.33632284	      2.17800225	     -0.88652966	     -4.17962499
      0.70083333	     -1.21616438	      3.03093899	      6.07567305	     -0.70630773	      0.95777129	      0.31885927	     30.58357358	     -2.01464260	     -4.39485976	    -18.56331572	      8.13474530	     -8.62572455	      6.25149520	    -22.54360360	      4.20179167	      6.24982496	    -12.63842417	     -0.15206867	     -3.27182208	     17.79872435	      2.42928098	     -0.69408434	     -4.10444709
      0.70500000	     -1.25980845	      2.85353058	      5.99331171	     -0.69969599	      0.95757002	      0.31938222	     30.66159186	     -1.76326195	     -4.34672190	    -19.27892230	      7.90719321	     -8.69691470	      6.24791802	    -22.45009745	      3.99767936	      6.02456522	    -13.25860173	     -0.94552206	     -3.24397936	     17.91171514	      2.57983719	     -0.47626358	     -4.10824915
